<svg xmlns="http://www.w3.org/2000/svg" viewBox="0 0 219.19 246.46"><defs><style>.cls-1{fill:#c9a063;}.cls-2{fill:#30653e;}.cls-3{fill:#604c3f;}.cls-4{fill:#40220f;}</style></defs><title>アセット 2</title><g id="レイヤー_2" data-name="レイヤー 2"><g id="レイヤー_1-2" data-name="レイヤー 1"><polygon class="cls-1" points="125.79 126.2 85.28 126.2 97.4 78.9 113.67 78.9 125.79 126.2"/><path class="cls-2" d="M111.32,2.87C112.61.53,116-2.21,122,2.87c13.41,11.26,13,32.52,0,43.38a4.33,4.33,0,0,1-2.54.53,4.85,4.85,0,0,1-4.81-4.85l8.56-20.76c.49-1.4,2.57-4.2-3.08-6.31s-6.2-.3-7.08,1.92c-.69,1.75-5.28,21.21-5.28,21.21-.18-1.15-8.13-1.54-9.25,0,0,0-4.24-16.24-5.6-20.13-.6-1.72-.88-5.62-7.55-3.33-5.48,1.88-4.11,5.8-3.39,7.37l9.68,20a4.83,4.83,0,0,1-4.81,4.84,4.35,4.35,0,0,1-2.55-.53c-13.15-11.16-13.53-33.14,0-43.38,5.53-4.18,8.09-3,10.67,0,1.45,1.69,2.75,4.91,3.87,8.61a4.85,4.85,0,0,0,9.29,0A47,47,0,0,1,111.32,2.87Z"/><path class="cls-2" d="M122.86,81c-.86,1.32-1.59,1.9-1.25,3.25.71,2.74,4.35,3.8,6.08,4.07h0c3.16.64,4.79-.52,4.41.18l-4.29,3.64a.77.77,0,0,1-.26.28A10.41,10.41,0,0,1,122.07,94a11.06,11.06,0,0,1-6.44-2q-5.53-3.57-6.69-8.37t2.21-10l10.52-16.26a1,1,0,0,1,1.43-.14l9.65,6.38a1,1,0,0,1,.46,1.36Zm18.62-11a1,1,0,0,1,1.25-.24c2.12,1,7.56,3.62,8.18,5.46,3.56,10.43-3.71,24.89-17.81,27.56-1.89.36-6.6-3.65-8.36-5.23a1,1,0,0,1-.28-1.22Z"/><path class="cls-2" d="M135.54,54.22c.69,1.42.81,2.35,2.14,2.75,2.7.82,5.5-1.74,6.63-3.09h0c2.18-2.37,2-4.36,2.43-3.68l.9,5.56a.79.79,0,0,1,.1.37,10.47,10.47,0,0,1-1.45,5.53,11.21,11.21,0,0,1-5,4.48c-3.95,1.91-7.49,2.38-10.63,1.38s-5.62-3.36-7.44-7.09L114.73,43a1,1,0,0,1,.62-1.29l10.47-4.94a1,1,0,0,1,1.4.31Zm.25-21.62a1,1,0,0,1,.44-1.19c1.94-1.31,7-4.59,8.92-4.17,10.76,2.36,19.36,16.08,14.33,29.52-.67,1.79-6.54,3.75-8.8,4.44a1,1,0,0,1-1.19-.39Z"/><path class="cls-2" d="M61.05,44.71a34,34,0,0,1,2.42-2.55A3.7,3.7,0,0,1,69.64,44l9.21,42.18a3.69,3.69,0,0,1-4.74,4.31,32.34,32.34,0,0,1-3.28-1.28C52.67,81,49.62,58,61.05,44.71ZM72.5,69.61,83,41.81a3.68,3.68,0,0,1,2.67-2.3l1.47-.32a3.69,3.69,0,0,1,4.18,5.06l-13.9,35.6c-1.35,3.14-4-4.54-5-7.79h0A3.74,3.74,0,0,1,72.5,69.61Zm8.22-8,1.77-3.95c1.49-1.48,3.06,1.64,4.48,3.2l14.47,16a3.69,3.69,0,0,1-2,6.08l-1.5.33a3.7,3.7,0,0,1-3.54-1.14L80.57,66.71A3.7,3.7,0,0,1,80.72,61.62Z"/><path class="cls-3" d="M25.68,213.61c1.11,0,1.67.43,1.67,1.28s-.56,1.28-1.67,1.28h-21c-.62,0-.93.27-.93.8v10.9H22.89c1.11,0,1.67.43,1.67,1.29s-.56,1.28-1.67,1.28H3.72V244.7c0,1.18-.62,1.76-1.86,1.76S0,245.88,0,244.7V216.5c0-1.93,1.11-2.89,3.35-2.89Z"/><path class="cls-3" d="M31.45,225.63c0-1.07.55-1.6,1.67-1.6s1.68.53,1.68,1.6v11.06q0,7.53,8.55,7.53a11.82,11.82,0,0,0,8.56-3,8.89,8.89,0,0,0,2.61-3.85v-11.7c0-1.07.55-1.6,1.67-1.6s1.68.53,1.68,1.6v19.23c0,1.07-.56,1.6-1.68,1.6s-1.67-.53-1.67-1.6V241q-3.92,5.44-11.72,5.44c-3.6,0-6.46-.9-8.57-2.72-1.85-1.6-2.78-4-2.78-7.21Z"/><path class="cls-3" d="M63.82,225.63c0-1.07.56-1.6,1.68-1.6s1.67.53,1.67,1.6v4a12.49,12.49,0,0,1,2.61-3.53c1.6-1.39,4.4-2.08,8.37-2.08,1.11,0,1.67.43,1.67,1.28s-.56,1.28-1.67,1.28H76.1a8.23,8.23,0,0,0-5.58,1.77,11.72,11.72,0,0,0-3.35,5v11.54c0,1.07-.56,1.6-1.67,1.6s-1.68-.53-1.68-1.6Z"/><path class="cls-3" d="M83.36,225.63c0-1.07.56-1.6,1.67-1.6s1.68.53,1.68,1.6v4a16.74,16.74,0,0,1,2.79-2.73A14.65,14.65,0,0,1,98.43,224q5.58,0,8.74,2.72a8,8,0,0,1,2.61,6.41v11.7c0,1.07-.56,1.6-1.68,1.6s-1.67-.53-1.67-1.6V233.64a6.57,6.57,0,0,0-2.05-5.28,9.34,9.34,0,0,0-6.32-2.09,12.12,12.12,0,0,0-8.75,3.21,9.48,9.48,0,0,0-2.6,3.52v11.86c0,1.07-.56,1.6-1.68,1.6s-1.67-.53-1.67-1.6Z"/><path class="cls-3" d="M119.27,216.5a2.1,2.1,0,0,1,0,3.2,2.75,2.75,0,0,1-1.86.64,2.71,2.71,0,0,1-1.86-.64,2.08,2.08,0,0,1,0-3.2,2.72,2.72,0,0,1,1.86-.65A2.76,2.76,0,0,1,119.27,216.5Zm-3.54,9.13c0-1.07.56-1.6,1.68-1.6s1.67.53,1.67,1.6v19.23c0,1.07-.56,1.6-1.67,1.6s-1.68-.53-1.68-1.6Z"/><path class="cls-3" d="M128.57,224v-4.49c0-1.07.56-1.6,1.68-1.6s1.67.53,1.67,1.6V224h6.33c1,0,1.48.37,1.48,1.12s-.49,1.12-1.48,1.12h-6.33v14.91a2.51,2.51,0,0,0,.93,2.24,5.34,5.34,0,0,0,3,.64,7.06,7.06,0,0,0,2.42-.48,1.52,1.52,0,0,1,1.86.64c.25.75-.13,1.34-1.12,1.76a12.27,12.27,0,0,1-3.72.48,9.06,9.06,0,0,1-5-1.12,4.52,4.52,0,0,1-1.68-3.84V226.27h-4.46c-1,0-1.49-.37-1.49-1.12s.49-1.12,1.49-1.12Z"/><path class="cls-3" d="M143.64,225.63c0-1.07.56-1.6,1.68-1.6s1.67.53,1.67,1.6v11.06q0,7.53,8.56,7.53a11.82,11.82,0,0,0,8.56-3,8.89,8.89,0,0,0,2.61-3.85v-11.7c0-1.07.55-1.6,1.67-1.6s1.68.53,1.68,1.6v19.23c0,1.07-.56,1.6-1.68,1.6s-1.67-.53-1.67-1.6V241q-3.91,5.44-11.72,5.44c-3.6,0-6.46-.9-8.57-2.72-1.86-1.6-2.79-4-2.79-7.21Z"/><path class="cls-3" d="M176,225.63c0-1.07.56-1.6,1.68-1.6s1.67.53,1.67,1.6v4a12.48,12.48,0,0,1,2.6-3.53c1.61-1.39,4.41-2.08,8.38-2.08,1.11,0,1.67.43,1.67,1.28s-.56,1.28-1.67,1.28h-2a8.23,8.23,0,0,0-5.58,1.77,11.72,11.72,0,0,0-3.35,5v11.54c0,1.07-.56,1.6-1.67,1.6s-1.68-.53-1.68-1.6Z"/><path class="cls-3" d="M216,227.07a8.25,8.25,0,0,1,3.17,6.41c0,1.39-.81,2.09-2.42,2.09H197.42a7.65,7.65,0,0,0,2.6,6.09,10.22,10.22,0,0,0,6.89,2.56q4.47,0,6.88-2.4a7.47,7.47,0,0,0,1.86-2.89,1.58,1.58,0,0,1,2-.64,1.3,1.3,0,0,1,.74,1.76,10.17,10.17,0,0,1-2.42,3.53q-2.78,2.88-8.93,2.88a14.32,14.32,0,0,1-9.67-3.2,10.68,10.68,0,0,1-3.73-8.5,9.69,9.69,0,0,1,3.73-7.53,14,14,0,0,1,9.49-3.2A13.44,13.44,0,0,1,216,227.07Zm-18.6,6.25h17.12c.62,0,.93-.26.93-.8a5.43,5.43,0,0,0-2.24-4,9.63,9.63,0,0,0-6.51-2.24,10,10,0,0,0-6.7,2.56A7.87,7.87,0,0,0,197.42,233.32Z"/><path class="cls-4" d="M25.68,213.61c1.11,0,1.67.43,1.67,1.28s-.56,1.28-1.67,1.28h-21c-.62,0-.93.27-.93.8v10.9H22.89c1.11,0,1.67.43,1.67,1.29s-.56,1.28-1.67,1.28H3.72V244.7c0,1.18-.62,1.76-1.86,1.76S0,245.88,0,244.7V216.5c0-1.93,1.11-2.89,3.35-2.89Z"/><path class="cls-4" d="M31.45,225.63c0-1.07.55-1.6,1.67-1.6s1.68.53,1.68,1.6v11.06q0,7.53,8.55,7.53a11.82,11.82,0,0,0,8.56-3,8.89,8.89,0,0,0,2.61-3.85v-11.7c0-1.07.55-1.6,1.67-1.6s1.68.53,1.68,1.6v19.23c0,1.07-.56,1.6-1.68,1.6s-1.67-.53-1.67-1.6V241q-3.92,5.44-11.72,5.44c-3.6,0-6.46-.9-8.57-2.72-1.85-1.6-2.78-4-2.78-7.21Z"/><path class="cls-4" d="M63.82,225.63c0-1.07.56-1.6,1.68-1.6s1.67.53,1.67,1.6v4a12.49,12.49,0,0,1,2.61-3.53c1.6-1.39,4.4-2.08,8.37-2.08,1.11,0,1.67.43,1.67,1.28s-.56,1.28-1.67,1.28H76.1a8.23,8.23,0,0,0-5.58,1.77,11.72,11.72,0,0,0-3.35,5v11.54c0,1.07-.56,1.6-1.67,1.6s-1.68-.53-1.68-1.6Z"/><path class="cls-4" d="M83.36,225.63c0-1.07.56-1.6,1.67-1.6s1.68.53,1.68,1.6v4a16.74,16.74,0,0,1,2.79-2.73A14.65,14.65,0,0,1,98.43,224q5.58,0,8.74,2.72a8,8,0,0,1,2.61,6.41v11.7c0,1.07-.56,1.6-1.68,1.6s-1.67-.53-1.67-1.6V233.64a6.57,6.57,0,0,0-2.05-5.28,9.34,9.34,0,0,0-6.32-2.09,12.12,12.12,0,0,0-8.75,3.21,9.48,9.48,0,0,0-2.6,3.52v11.86c0,1.07-.56,1.6-1.68,1.6s-1.67-.53-1.67-1.6Z"/><path class="cls-4" d="M119.27,216.5a2.1,2.1,0,0,1,0,3.2,2.75,2.75,0,0,1-1.86.64,2.71,2.71,0,0,1-1.86-.64,2.08,2.08,0,0,1,0-3.2,2.72,2.72,0,0,1,1.86-.65A2.76,2.76,0,0,1,119.27,216.5Zm-3.54,9.13c0-1.07.56-1.6,1.68-1.6s1.67.53,1.67,1.6v19.23c0,1.07-.56,1.6-1.67,1.6s-1.68-.53-1.68-1.6Z"/><path class="cls-4" d="M128.57,224v-4.49c0-1.07.56-1.6,1.68-1.6s1.67.53,1.67,1.6V224h6.33c1,0,1.48.37,1.48,1.12s-.49,1.12-1.48,1.12h-6.33v14.91a2.51,2.51,0,0,0,.93,2.24,5.34,5.34,0,0,0,3,.64,7.06,7.06,0,0,0,2.42-.48,1.52,1.52,0,0,1,1.86.64c.25.75-.13,1.34-1.12,1.76a12.27,12.27,0,0,1-3.72.48,9.06,9.06,0,0,1-5-1.12,4.52,4.52,0,0,1-1.68-3.84V226.27h-4.46c-1,0-1.49-.37-1.49-1.12s.49-1.12,1.49-1.12Z"/><path class="cls-4" d="M143.64,225.63c0-1.07.56-1.6,1.68-1.6s1.67.53,1.67,1.6v11.06q0,7.53,8.56,7.53a11.82,11.82,0,0,0,8.56-3,8.89,8.89,0,0,0,2.61-3.85v-11.7c0-1.07.55-1.6,1.67-1.6s1.68.53,1.68,1.6v19.23c0,1.07-.56,1.6-1.68,1.6s-1.67-.53-1.67-1.6V241q-3.91,5.44-11.72,5.44c-3.6,0-6.46-.9-8.57-2.72-1.86-1.6-2.79-4-2.79-7.21Z"/><path class="cls-4" d="M176,225.63c0-1.07.56-1.6,1.68-1.6s1.67.53,1.67,1.6v4a12.48,12.48,0,0,1,2.6-3.53c1.61-1.39,4.41-2.08,8.38-2.08,1.11,0,1.67.43,1.67,1.28s-.56,1.28-1.67,1.28h-2a8.23,8.23,0,0,0-5.58,1.77,11.72,11.72,0,0,0-3.35,5v11.54c0,1.07-.56,1.6-1.67,1.6s-1.68-.53-1.68-1.6Z"/><path class="cls-4" d="M216,227.07a8.25,8.25,0,0,1,3.17,6.41c0,1.39-.81,2.09-2.42,2.09H197.42a7.65,7.65,0,0,0,2.6,6.09,10.22,10.22,0,0,0,6.89,2.56q4.47,0,6.88-2.4a7.47,7.47,0,0,0,1.86-2.89,1.58,1.58,0,0,1,2-.64,1.3,1.3,0,0,1,.74,1.76,10.17,10.17,0,0,1-2.42,3.53q-2.78,2.88-8.93,2.88a14.32,14.32,0,0,1-9.67-3.2,10.68,10.68,0,0,1-3.73-8.5,9.69,9.69,0,0,1,3.73-7.53,14,14,0,0,1,9.49-3.2A13.44,13.44,0,0,1,216,227.07Zm-18.6,6.25h17.12c.62,0,.93-.26.93-.8a5.43,5.43,0,0,0-2.24-4,9.63,9.63,0,0,0-6.51-2.24,10,10,0,0,0-6.7,2.56A7.87,7.87,0,0,0,197.42,233.32Z"/><path class="cls-3" d="M20.5,143c3.06,0,5,1.35,5.93,4.06l16.43,49.31L59.29,147c1.26-2.71,3.23-4.06,5.93-4.06A5.47,5.47,0,0,1,69,144.42a4.75,4.75,0,0,1,1.35,3.77V199c0,2.12-.91,3.19-2.7,3.19S65,201.07,65,199V146.74L47.44,198.66c-.9,2.51-2.42,3.77-4.58,3.77s-3.68-1.26-4.58-3.77L20.77,146.74V199c0,2.12-.89,3.19-2.69,3.19s-2.69-1.07-2.69-3.19V148.19a5.35,5.35,0,0,1,1.34-3.77A4.89,4.89,0,0,1,20.5,143Z"/><path class="cls-3" d="M79,164.72c0-1.93.81-2.9,2.43-2.9s2.42,1,2.42,2.9v20q0,13.63,12.39,13.63a15.28,15.28,0,0,0,12.39-5.51,16.66,16.66,0,0,0,3.77-7V164.72c0-1.93.81-2.9,2.43-2.9s2.42,1,2.42,2.9v34.81c0,1.93-.81,2.9-2.42,2.9s-2.43-1-2.43-2.9v-7q-5.66,9.85-17,9.86-7.81,0-12.39-4.93-4-4.35-4-13.05Z"/><path class="cls-3" d="M125.82,145.87c0-1.93.81-2.9,2.42-2.9s2.43,1,2.43,2.9v35.39l22.08-19.73a2.33,2.33,0,0,1,3.5.29,3,3,0,0,1-.53,4.06l-13.2,11.9,18,20.88a2.67,2.67,0,1,1-4,3.48L138.75,181l-8.08,7.25v11.31c0,1.93-.81,2.9-2.43,2.9s-2.42-1-2.42-2.9Z"/><path class="cls-3" d="M166.22,164.72c0-1.93.81-2.9,2.42-2.9s2.43,1,2.43,2.9v20q0,13.63,12.39,13.63a15.3,15.3,0,0,0,12.39-5.51,16.78,16.78,0,0,0,3.77-7V164.72c0-1.93.8-2.9,2.42-2.9s2.42,1,2.42,2.9v34.81c0,1.93-.8,2.9-2.42,2.9s-2.42-1-2.42-2.9v-7q-5.66,9.85-17,9.86-7.82,0-12.39-4.93-4-4.35-4-13.05Z"/><path class="cls-4" d="M20.5,143c3.06,0,5,1.35,5.93,4.06l16.43,49.31L59.29,147c1.26-2.71,3.23-4.06,5.93-4.06A5.47,5.47,0,0,1,69,144.42a4.75,4.75,0,0,1,1.35,3.77V199c0,2.12-.91,3.19-2.7,3.19S65,201.07,65,199V146.74L47.44,198.66c-.9,2.51-2.42,3.77-4.58,3.77s-3.68-1.26-4.58-3.77L20.77,146.74V199c0,2.12-.89,3.19-2.69,3.19s-2.69-1.07-2.69-3.19V148.19a5.35,5.35,0,0,1,1.34-3.77A4.89,4.89,0,0,1,20.5,143Z"/><path class="cls-4" d="M79,164.72c0-1.93.81-2.9,2.43-2.9s2.42,1,2.42,2.9v20q0,13.63,12.39,13.63a15.28,15.28,0,0,0,12.39-5.51,16.66,16.66,0,0,0,3.77-7V164.72c0-1.93.81-2.9,2.43-2.9s2.42,1,2.42,2.9v34.81c0,1.93-.81,2.9-2.42,2.9s-2.43-1-2.43-2.9v-7q-5.66,9.85-17,9.86-7.81,0-12.39-4.93-4-4.35-4-13.05Z"/><path class="cls-4" d="M125.82,145.87c0-1.93.81-2.9,2.42-2.9s2.43,1,2.43,2.9v35.39l22.08-19.73a2.33,2.33,0,0,1,3.5.29,3,3,0,0,1-.53,4.06l-13.2,11.9,18,20.88a2.67,2.67,0,1,1-4,3.48L138.75,181l-8.08,7.25v11.31c0,1.93-.81,2.9-2.43,2.9s-2.42-1-2.42-2.9Z"/><path class="cls-4" d="M166.22,164.72c0-1.93.81-2.9,2.42-2.9s2.43,1,2.43,2.9v20q0,13.63,12.39,13.63a15.3,15.3,0,0,0,12.39-5.51,16.78,16.78,0,0,0,3.77-7V164.72c0-1.93.8-2.9,2.42-2.9s2.42,1,2.42,2.9v34.81c0,1.93-.8,2.9-2.42,2.9s-2.42-1-2.42-2.9v-7q-5.66,9.85-17,9.86-7.82,0-12.39-4.93-4-4.35-4-13.05Z"/></g></g></svg>